# xmcd
#
# Track frame offsets:
#	150
#	22957
#	51285
#	78155
#	98512
#	127022
#	158147
#	179705
#	205890
#	236877
#	259035
#	281877
#	314952
#
# Disc length: 4618 seconds
#
# Revision: 1
# Processed by: cddbd v1.5.1PL2 Copyright (c) Steve Scherf et al.
# Submitted via: audiograbber 1.83.01
#
DISCID=bd12080d
DTITLE=Steamboat Willie - Mama's Gone Goodbye
DYEAR=1900
DGENRE=
TTITLE0=Mama's Gone Goodbye
TTITLE1=Love Letters In The Sand
TTITLE2=Cry
TTITLE3=Everybody Loves My Baby
TTITLE4=My Melancholy Baby
TTITLE5=Tiger Rag
TTITLE6=Ice Cream
TTITLE7=Just A Closer Walk With Thee
TTITLE8=Border Of The Quarterr
TTITLE9=Baby Won't You Please Come Home
TTITLE10=Hold Me
TTITLE11=Only You
TTITLE12=Papa's Gone Goodbye
EXTD=
EXTT0=
EXTT1=
EXTT2=
EXTT3=
EXTT4=
EXTT5=
EXTT6=
EXTT7=
EXTT8=
EXTT9=
EXTT10=
EXTT11=
EXTT12=
PLAYORDER=
